<mxfile host="Electron" modified="2024-03-20T13:46:45.957Z" agent="Mozilla/5.0 (X11; Linux x86_64) AppleWebKit/537.36 (KHTML, like Gecko) draw.io/22.0.3 Chrome/114.0.5735.289 Electron/25.8.4 Safari/537.36" etag="xgFFZ8YBswyJMe89d6j_" version="22.0.3" type="device">
  <diagram name="Page-1" id="y00IIp2UoIGJt-cBX9Gs">
    <mxGraphModel dx="574" dy="396" grid="1" gridSize="10" guides="1" tooltips="1" connect="1" arrows="1" fold="1" page="1" pageScale="1" pageWidth="850" pageHeight="1100" math="0" shadow="0">
      <root>
        <mxCell id="0" />
        <mxCell id="1" parent="0" />
        <mxCell id="BoIr6ADtWr4QS03_KF1U-57" value="" style="rounded=1;whiteSpace=wrap;html=1;strokeColor=#d6b656;fillColor=#fff2cc;" vertex="1" parent="1">
          <mxGeometry x="65.56" y="340" width="357.75" height="148.5" as="geometry" />
        </mxCell>
        <mxCell id="BoIr6ADtWr4QS03_KF1U-56" value="" style="rounded=1;whiteSpace=wrap;html=1;strokeColor=#6c8ebf;fillColor=#dae8fc;" vertex="1" parent="1">
          <mxGeometry x="65.56" y="12" width="357.75" height="168" as="geometry" />
        </mxCell>
        <mxCell id="BoIr6ADtWr4QS03_KF1U-28" value="" style="rounded=0;whiteSpace=wrap;html=1;fontSize=10;" vertex="1" parent="1">
          <mxGeometry x="199.5" y="315" width="80.5" height="50" as="geometry" />
        </mxCell>
        <mxCell id="EXV0WJkCZm_DkFYK4QC3-276" value="" style="endArrow=classic;startArrow=classic;html=1;rounded=0;strokeColor=#ff0000;exitX=0.5;exitY=0;exitDx=0;exitDy=0;entryX=0.5;entryY=1;entryDx=0;entryDy=0;" parent="1" source="BoIr6ADtWr4QS03_KF1U-11" target="BoIr6ADtWr4QS03_KF1U-39" edge="1">
          <mxGeometry width="50" height="50" relative="1" as="geometry">
            <mxPoint x="340" y="230" as="sourcePoint" />
            <mxPoint x="250" y="210" as="targetPoint" />
            <Array as="points" />
          </mxGeometry>
        </mxCell>
        <mxCell id="EXV0WJkCZm_DkFYK4QC3-113" value="" style="rounded=0;whiteSpace=wrap;html=1;direction=west;" parent="1" vertex="1">
          <mxGeometry x="292.25" y="385" width="110" height="85" as="geometry" />
        </mxCell>
        <mxCell id="EXV0WJkCZm_DkFYK4QC3-114" value="" style="rounded=0;whiteSpace=wrap;html=1;direction=west;" parent="1" vertex="1">
          <mxGeometry x="292.25" y="407.5" width="20" height="20" as="geometry" />
        </mxCell>
        <mxCell id="EXV0WJkCZm_DkFYK4QC3-115" value="" style="rounded=0;whiteSpace=wrap;html=1;direction=west;" parent="1" vertex="1">
          <mxGeometry x="292.25" y="440" width="20" height="20" as="geometry" />
        </mxCell>
        <mxCell id="EXV0WJkCZm_DkFYK4QC3-116" value="" style="rounded=0;whiteSpace=wrap;html=1;direction=north;" parent="1" vertex="1">
          <mxGeometry x="317.25" y="426.5" width="4" height="17" as="geometry" />
        </mxCell>
        <mxCell id="EXV0WJkCZm_DkFYK4QC3-117" value="" style="whiteSpace=wrap;html=1;aspect=fixed;fillColor=#212121;direction=west;" parent="1" vertex="1">
          <mxGeometry x="343.25" y="416" width="23" height="23" as="geometry" />
        </mxCell>
        <mxCell id="EXV0WJkCZm_DkFYK4QC3-118" value="" style="rounded=0;whiteSpace=wrap;html=1;" parent="1" vertex="1">
          <mxGeometry x="89.5" y="400" width="110" height="70" as="geometry" />
        </mxCell>
        <mxCell id="EXV0WJkCZm_DkFYK4QC3-119" value="" style="rounded=0;whiteSpace=wrap;html=1;" parent="1" vertex="1">
          <mxGeometry x="179.5" y="410" width="20" height="20" as="geometry" />
        </mxCell>
        <mxCell id="EXV0WJkCZm_DkFYK4QC3-120" value="" style="rounded=0;whiteSpace=wrap;html=1;direction=south;" parent="1" vertex="1">
          <mxGeometry x="93.5" y="426.5" width="4" height="17" as="geometry" />
        </mxCell>
        <mxCell id="EXV0WJkCZm_DkFYK4QC3-121" value="" style="rounded=0;whiteSpace=wrap;html=1;" parent="1" vertex="1">
          <mxGeometry x="179.5" y="440" width="20" height="20" as="geometry" />
        </mxCell>
        <mxCell id="EXV0WJkCZm_DkFYK4QC3-122" value="" style="rounded=0;whiteSpace=wrap;html=1;" parent="1" vertex="1">
          <mxGeometry x="93.5" y="404" width="73" height="13" as="geometry" />
        </mxCell>
        <mxCell id="EXV0WJkCZm_DkFYK4QC3-123" value="" style="ellipse;whiteSpace=wrap;html=1;aspect=fixed;" parent="1" vertex="1">
          <mxGeometry x="96.5" y="406" width="3" height="3" as="geometry" />
        </mxCell>
        <mxCell id="EXV0WJkCZm_DkFYK4QC3-124" value="" style="ellipse;whiteSpace=wrap;html=1;aspect=fixed;" parent="1" vertex="1">
          <mxGeometry x="103.5" y="406" width="3" height="3" as="geometry" />
        </mxCell>
        <mxCell id="EXV0WJkCZm_DkFYK4QC3-125" value="" style="ellipse;whiteSpace=wrap;html=1;aspect=fixed;" parent="1" vertex="1">
          <mxGeometry x="110.5" y="406" width="3" height="3" as="geometry" />
        </mxCell>
        <mxCell id="EXV0WJkCZm_DkFYK4QC3-126" value="" style="ellipse;whiteSpace=wrap;html=1;aspect=fixed;" parent="1" vertex="1">
          <mxGeometry x="117.5" y="406" width="3" height="3" as="geometry" />
        </mxCell>
        <mxCell id="EXV0WJkCZm_DkFYK4QC3-127" value="" style="ellipse;whiteSpace=wrap;html=1;aspect=fixed;" parent="1" vertex="1">
          <mxGeometry x="124.5" y="406" width="3" height="3" as="geometry" />
        </mxCell>
        <mxCell id="EXV0WJkCZm_DkFYK4QC3-128" value="" style="ellipse;whiteSpace=wrap;html=1;aspect=fixed;" parent="1" vertex="1">
          <mxGeometry x="131.5" y="406" width="3" height="3" as="geometry" />
        </mxCell>
        <mxCell id="EXV0WJkCZm_DkFYK4QC3-129" value="" style="ellipse;whiteSpace=wrap;html=1;aspect=fixed;" parent="1" vertex="1">
          <mxGeometry x="138.5" y="406" width="3" height="3" as="geometry" />
        </mxCell>
        <mxCell id="EXV0WJkCZm_DkFYK4QC3-130" value="" style="ellipse;whiteSpace=wrap;html=1;aspect=fixed;" parent="1" vertex="1">
          <mxGeometry x="145.5" y="406" width="3" height="3" as="geometry" />
        </mxCell>
        <mxCell id="EXV0WJkCZm_DkFYK4QC3-131" value="" style="ellipse;whiteSpace=wrap;html=1;aspect=fixed;" parent="1" vertex="1">
          <mxGeometry x="152.5" y="406" width="3" height="3" as="geometry" />
        </mxCell>
        <mxCell id="EXV0WJkCZm_DkFYK4QC3-132" value="" style="ellipse;whiteSpace=wrap;html=1;aspect=fixed;" parent="1" vertex="1">
          <mxGeometry x="159.5" y="406" width="3" height="3" as="geometry" />
        </mxCell>
        <mxCell id="EXV0WJkCZm_DkFYK4QC3-133" value="" style="ellipse;whiteSpace=wrap;html=1;aspect=fixed;" parent="1" vertex="1">
          <mxGeometry x="96.5" y="412" width="3" height="3" as="geometry" />
        </mxCell>
        <mxCell id="EXV0WJkCZm_DkFYK4QC3-134" value="" style="ellipse;whiteSpace=wrap;html=1;aspect=fixed;" parent="1" vertex="1">
          <mxGeometry x="103.5" y="412" width="3" height="3" as="geometry" />
        </mxCell>
        <mxCell id="EXV0WJkCZm_DkFYK4QC3-135" value="" style="ellipse;whiteSpace=wrap;html=1;aspect=fixed;" parent="1" vertex="1">
          <mxGeometry x="110.5" y="412" width="3" height="3" as="geometry" />
        </mxCell>
        <mxCell id="EXV0WJkCZm_DkFYK4QC3-136" value="" style="ellipse;whiteSpace=wrap;html=1;aspect=fixed;" parent="1" vertex="1">
          <mxGeometry x="117.5" y="412" width="3" height="3" as="geometry" />
        </mxCell>
        <mxCell id="EXV0WJkCZm_DkFYK4QC3-137" value="" style="ellipse;whiteSpace=wrap;html=1;aspect=fixed;" parent="1" vertex="1">
          <mxGeometry x="124.5" y="412" width="3" height="3" as="geometry" />
        </mxCell>
        <mxCell id="EXV0WJkCZm_DkFYK4QC3-138" value="" style="ellipse;whiteSpace=wrap;html=1;aspect=fixed;" parent="1" vertex="1">
          <mxGeometry x="131.5" y="412" width="3" height="3" as="geometry" />
        </mxCell>
        <mxCell id="EXV0WJkCZm_DkFYK4QC3-139" value="" style="ellipse;whiteSpace=wrap;html=1;aspect=fixed;" parent="1" vertex="1">
          <mxGeometry x="138.5" y="412" width="3" height="3" as="geometry" />
        </mxCell>
        <mxCell id="EXV0WJkCZm_DkFYK4QC3-140" value="" style="ellipse;whiteSpace=wrap;html=1;aspect=fixed;" parent="1" vertex="1">
          <mxGeometry x="145.5" y="412" width="3" height="3" as="geometry" />
        </mxCell>
        <mxCell id="EXV0WJkCZm_DkFYK4QC3-141" value="" style="ellipse;whiteSpace=wrap;html=1;aspect=fixed;" parent="1" vertex="1">
          <mxGeometry x="152.5" y="412" width="3" height="3" as="geometry" />
        </mxCell>
        <mxCell id="EXV0WJkCZm_DkFYK4QC3-142" value="" style="ellipse;whiteSpace=wrap;html=1;aspect=fixed;" parent="1" vertex="1">
          <mxGeometry x="159.5" y="412" width="3" height="3" as="geometry" />
        </mxCell>
        <mxCell id="EXV0WJkCZm_DkFYK4QC3-143" value="" style="whiteSpace=wrap;html=1;aspect=fixed;fillColor=#212121;" parent="1" vertex="1">
          <mxGeometry x="159.5" y="450" width="10" height="10" as="geometry" />
        </mxCell>
        <mxCell id="EXV0WJkCZm_DkFYK4QC3-144" value="" style="whiteSpace=wrap;html=1;aspect=fixed;fillColor=#212121;" parent="1" vertex="1">
          <mxGeometry x="120.5" y="430" width="23.5" height="23.5" as="geometry" />
        </mxCell>
        <mxCell id="EXV0WJkCZm_DkFYK4QC3-145" value="" style="rounded=0;whiteSpace=wrap;html=1;fillColor=#212121;" parent="1" vertex="1">
          <mxGeometry x="159.5" y="423.5" width="8.5" height="13.5" as="geometry" />
        </mxCell>
        <mxCell id="EXV0WJkCZm_DkFYK4QC3-146" value="" style="rounded=0;whiteSpace=wrap;html=1;direction=north;" parent="1" vertex="1">
          <mxGeometry x="382.25" y="392.5" width="13" height="27" as="geometry" />
        </mxCell>
        <mxCell id="EXV0WJkCZm_DkFYK4QC3-147" value="" style="ellipse;whiteSpace=wrap;html=1;aspect=fixed;direction=north;" parent="1" vertex="1">
          <mxGeometry x="383.75" y="395.5" width="3" height="3" as="geometry" />
        </mxCell>
        <mxCell id="EXV0WJkCZm_DkFYK4QC3-148" value="" style="ellipse;whiteSpace=wrap;html=1;aspect=fixed;direction=north;" parent="1" vertex="1">
          <mxGeometry x="390.75" y="395.5" width="3" height="3" as="geometry" />
        </mxCell>
        <mxCell id="EXV0WJkCZm_DkFYK4QC3-149" value="" style="ellipse;whiteSpace=wrap;html=1;aspect=fixed;direction=north;" parent="1" vertex="1">
          <mxGeometry x="383.75" y="407.5" width="3" height="3" as="geometry" />
        </mxCell>
        <mxCell id="EXV0WJkCZm_DkFYK4QC3-150" value="" style="ellipse;whiteSpace=wrap;html=1;aspect=fixed;direction=north;" parent="1" vertex="1">
          <mxGeometry x="390.75" y="407.5" width="3" height="3" as="geometry" />
        </mxCell>
        <mxCell id="EXV0WJkCZm_DkFYK4QC3-151" value="" style="ellipse;whiteSpace=wrap;html=1;aspect=fixed;direction=north;" parent="1" vertex="1">
          <mxGeometry x="383.75" y="401.5" width="3" height="3" as="geometry" />
        </mxCell>
        <mxCell id="EXV0WJkCZm_DkFYK4QC3-152" value="" style="ellipse;whiteSpace=wrap;html=1;aspect=fixed;direction=north;" parent="1" vertex="1">
          <mxGeometry x="390.75" y="401.5" width="3" height="3" as="geometry" />
        </mxCell>
        <mxCell id="EXV0WJkCZm_DkFYK4QC3-153" value="" style="ellipse;whiteSpace=wrap;html=1;aspect=fixed;direction=north;" parent="1" vertex="1">
          <mxGeometry x="383.75" y="413.5" width="3" height="3" as="geometry" />
        </mxCell>
        <mxCell id="EXV0WJkCZm_DkFYK4QC3-154" value="" style="ellipse;whiteSpace=wrap;html=1;aspect=fixed;direction=north;" parent="1" vertex="1">
          <mxGeometry x="390.75" y="413.5" width="3" height="3" as="geometry" />
        </mxCell>
        <mxCell id="EXV0WJkCZm_DkFYK4QC3-155" value="" style="rounded=0;whiteSpace=wrap;html=1;direction=north;" parent="1" vertex="1">
          <mxGeometry x="382.25" y="436" width="13" height="27" as="geometry" />
        </mxCell>
        <mxCell id="EXV0WJkCZm_DkFYK4QC3-156" value="" style="ellipse;whiteSpace=wrap;html=1;aspect=fixed;direction=north;" parent="1" vertex="1">
          <mxGeometry x="383.75" y="439" width="3" height="3" as="geometry" />
        </mxCell>
        <mxCell id="EXV0WJkCZm_DkFYK4QC3-157" value="" style="ellipse;whiteSpace=wrap;html=1;aspect=fixed;direction=north;" parent="1" vertex="1">
          <mxGeometry x="390.75" y="439" width="3" height="3" as="geometry" />
        </mxCell>
        <mxCell id="EXV0WJkCZm_DkFYK4QC3-158" value="" style="ellipse;whiteSpace=wrap;html=1;aspect=fixed;direction=north;" parent="1" vertex="1">
          <mxGeometry x="383.75" y="451" width="3" height="3" as="geometry" />
        </mxCell>
        <mxCell id="EXV0WJkCZm_DkFYK4QC3-159" value="" style="ellipse;whiteSpace=wrap;html=1;aspect=fixed;direction=north;" parent="1" vertex="1">
          <mxGeometry x="390.75" y="451" width="3" height="3" as="geometry" />
        </mxCell>
        <mxCell id="EXV0WJkCZm_DkFYK4QC3-160" value="" style="ellipse;whiteSpace=wrap;html=1;aspect=fixed;direction=north;" parent="1" vertex="1">
          <mxGeometry x="383.75" y="445" width="3" height="3" as="geometry" />
        </mxCell>
        <mxCell id="EXV0WJkCZm_DkFYK4QC3-161" value="" style="ellipse;whiteSpace=wrap;html=1;aspect=fixed;direction=north;" parent="1" vertex="1">
          <mxGeometry x="390.75" y="445" width="3" height="3" as="geometry" />
        </mxCell>
        <mxCell id="EXV0WJkCZm_DkFYK4QC3-162" value="" style="ellipse;whiteSpace=wrap;html=1;aspect=fixed;direction=north;" parent="1" vertex="1">
          <mxGeometry x="383.75" y="457" width="3" height="3" as="geometry" />
        </mxCell>
        <mxCell id="EXV0WJkCZm_DkFYK4QC3-163" value="" style="ellipse;whiteSpace=wrap;html=1;aspect=fixed;direction=north;" parent="1" vertex="1">
          <mxGeometry x="390.75" y="457" width="3" height="3" as="geometry" />
        </mxCell>
        <mxCell id="EXV0WJkCZm_DkFYK4QC3-164" value="RJ-45" style="text;html=1;strokeColor=none;fillColor=none;align=center;verticalAlign=middle;whiteSpace=wrap;rounded=0;fontSize=6;" parent="1" vertex="1">
          <mxGeometry x="179.5" y="445" width="20" height="10" as="geometry" />
        </mxCell>
        <mxCell id="EXV0WJkCZm_DkFYK4QC3-165" value="USB" style="text;html=1;strokeColor=none;fillColor=none;align=center;verticalAlign=middle;whiteSpace=wrap;rounded=0;fontSize=6;" parent="1" vertex="1">
          <mxGeometry x="179.5" y="415" width="20" height="10" as="geometry" />
        </mxCell>
        <mxCell id="EXV0WJkCZm_DkFYK4QC3-166" value="RJ-45" style="text;html=1;strokeColor=none;fillColor=none;align=center;verticalAlign=middle;whiteSpace=wrap;rounded=0;fontSize=6;" parent="1" vertex="1">
          <mxGeometry x="292.25" y="445.5" width="20" height="10" as="geometry" />
        </mxCell>
        <mxCell id="EXV0WJkCZm_DkFYK4QC3-167" value="USB" style="text;html=1;strokeColor=none;fillColor=none;align=center;verticalAlign=middle;whiteSpace=wrap;rounded=0;fontSize=6;" parent="1" vertex="1">
          <mxGeometry x="292.25" y="412.5" width="20" height="10" as="geometry" />
        </mxCell>
        <mxCell id="EXV0WJkCZm_DkFYK4QC3-168" value="PCI" style="text;html=1;strokeColor=none;fillColor=none;align=center;verticalAlign=middle;whiteSpace=wrap;rounded=0;fontSize=6;rotation=-90;" parent="1" vertex="1">
          <mxGeometry x="316.25" y="431.37" width="20" height="7.25" as="geometry" />
        </mxCell>
        <mxCell id="EXV0WJkCZm_DkFYK4QC3-169" value="PCI" style="text;html=1;strokeColor=none;fillColor=none;align=center;verticalAlign=middle;whiteSpace=wrap;rounded=0;fontSize=6;rotation=-90;" parent="1" vertex="1">
          <mxGeometry x="93.5" y="431.37" width="20" height="7.25" as="geometry" />
        </mxCell>
        <mxCell id="EXV0WJkCZm_DkFYK4QC3-170" value="" style="rounded=0;whiteSpace=wrap;html=1;" parent="1" vertex="1">
          <mxGeometry x="302.25" y="388.5" width="73" height="13" as="geometry" />
        </mxCell>
        <mxCell id="EXV0WJkCZm_DkFYK4QC3-171" value="" style="ellipse;whiteSpace=wrap;html=1;aspect=fixed;" parent="1" vertex="1">
          <mxGeometry x="305.25" y="390.5" width="3" height="3" as="geometry" />
        </mxCell>
        <mxCell id="EXV0WJkCZm_DkFYK4QC3-172" value="" style="ellipse;whiteSpace=wrap;html=1;aspect=fixed;" parent="1" vertex="1">
          <mxGeometry x="312.25" y="390.5" width="3" height="3" as="geometry" />
        </mxCell>
        <mxCell id="EXV0WJkCZm_DkFYK4QC3-173" value="" style="ellipse;whiteSpace=wrap;html=1;aspect=fixed;" parent="1" vertex="1">
          <mxGeometry x="319.25" y="390.5" width="3" height="3" as="geometry" />
        </mxCell>
        <mxCell id="EXV0WJkCZm_DkFYK4QC3-174" value="" style="ellipse;whiteSpace=wrap;html=1;aspect=fixed;" parent="1" vertex="1">
          <mxGeometry x="326.25" y="390.5" width="3" height="3" as="geometry" />
        </mxCell>
        <mxCell id="EXV0WJkCZm_DkFYK4QC3-175" value="" style="ellipse;whiteSpace=wrap;html=1;aspect=fixed;" parent="1" vertex="1">
          <mxGeometry x="333.25" y="390.5" width="3" height="3" as="geometry" />
        </mxCell>
        <mxCell id="EXV0WJkCZm_DkFYK4QC3-176" value="" style="ellipse;whiteSpace=wrap;html=1;aspect=fixed;" parent="1" vertex="1">
          <mxGeometry x="340.25" y="390.5" width="3" height="3" as="geometry" />
        </mxCell>
        <mxCell id="EXV0WJkCZm_DkFYK4QC3-177" value="" style="ellipse;whiteSpace=wrap;html=1;aspect=fixed;" parent="1" vertex="1">
          <mxGeometry x="347.25" y="390.5" width="3" height="3" as="geometry" />
        </mxCell>
        <mxCell id="EXV0WJkCZm_DkFYK4QC3-178" value="" style="ellipse;whiteSpace=wrap;html=1;aspect=fixed;" parent="1" vertex="1">
          <mxGeometry x="354.25" y="390.5" width="3" height="3" as="geometry" />
        </mxCell>
        <mxCell id="EXV0WJkCZm_DkFYK4QC3-179" value="" style="ellipse;whiteSpace=wrap;html=1;aspect=fixed;" parent="1" vertex="1">
          <mxGeometry x="361.25" y="390.5" width="3" height="3" as="geometry" />
        </mxCell>
        <mxCell id="EXV0WJkCZm_DkFYK4QC3-180" value="" style="ellipse;whiteSpace=wrap;html=1;aspect=fixed;" parent="1" vertex="1">
          <mxGeometry x="368.25" y="390.5" width="3" height="3" as="geometry" />
        </mxCell>
        <mxCell id="EXV0WJkCZm_DkFYK4QC3-181" value="" style="ellipse;whiteSpace=wrap;html=1;aspect=fixed;" parent="1" vertex="1">
          <mxGeometry x="305.25" y="396.5" width="3" height="3" as="geometry" />
        </mxCell>
        <mxCell id="EXV0WJkCZm_DkFYK4QC3-182" value="" style="ellipse;whiteSpace=wrap;html=1;aspect=fixed;" parent="1" vertex="1">
          <mxGeometry x="312.25" y="396.5" width="3" height="3" as="geometry" />
        </mxCell>
        <mxCell id="EXV0WJkCZm_DkFYK4QC3-183" value="" style="ellipse;whiteSpace=wrap;html=1;aspect=fixed;" parent="1" vertex="1">
          <mxGeometry x="319.25" y="396.5" width="3" height="3" as="geometry" />
        </mxCell>
        <mxCell id="EXV0WJkCZm_DkFYK4QC3-184" value="" style="ellipse;whiteSpace=wrap;html=1;aspect=fixed;" parent="1" vertex="1">
          <mxGeometry x="326.25" y="396.5" width="3" height="3" as="geometry" />
        </mxCell>
        <mxCell id="EXV0WJkCZm_DkFYK4QC3-185" value="" style="ellipse;whiteSpace=wrap;html=1;aspect=fixed;" parent="1" vertex="1">
          <mxGeometry x="333.25" y="396.5" width="3" height="3" as="geometry" />
        </mxCell>
        <mxCell id="EXV0WJkCZm_DkFYK4QC3-186" value="" style="ellipse;whiteSpace=wrap;html=1;aspect=fixed;" parent="1" vertex="1">
          <mxGeometry x="340.25" y="396.5" width="3" height="3" as="geometry" />
        </mxCell>
        <mxCell id="EXV0WJkCZm_DkFYK4QC3-187" value="" style="ellipse;whiteSpace=wrap;html=1;aspect=fixed;" parent="1" vertex="1">
          <mxGeometry x="347.25" y="396.5" width="3" height="3" as="geometry" />
        </mxCell>
        <mxCell id="EXV0WJkCZm_DkFYK4QC3-188" value="" style="ellipse;whiteSpace=wrap;html=1;aspect=fixed;" parent="1" vertex="1">
          <mxGeometry x="354.25" y="396.5" width="3" height="3" as="geometry" />
        </mxCell>
        <mxCell id="EXV0WJkCZm_DkFYK4QC3-189" value="" style="ellipse;whiteSpace=wrap;html=1;aspect=fixed;" parent="1" vertex="1">
          <mxGeometry x="361.25" y="396.5" width="3" height="3" as="geometry" />
        </mxCell>
        <mxCell id="EXV0WJkCZm_DkFYK4QC3-190" value="" style="ellipse;whiteSpace=wrap;html=1;aspect=fixed;" parent="1" vertex="1">
          <mxGeometry x="368.25" y="396.5" width="3" height="3" as="geometry" />
        </mxCell>
        <mxCell id="EXV0WJkCZm_DkFYK4QC3-191" value="" style="rounded=0;whiteSpace=wrap;html=1;direction=west;" parent="1" vertex="1">
          <mxGeometry x="292.25" y="38.5" width="110" height="85" as="geometry" />
        </mxCell>
        <mxCell id="EXV0WJkCZm_DkFYK4QC3-192" value="" style="rounded=0;whiteSpace=wrap;html=1;direction=west;" parent="1" vertex="1">
          <mxGeometry x="292.25" y="61" width="20" height="20" as="geometry" />
        </mxCell>
        <mxCell id="EXV0WJkCZm_DkFYK4QC3-193" value="" style="rounded=0;whiteSpace=wrap;html=1;direction=west;" parent="1" vertex="1">
          <mxGeometry x="292.25" y="93.5" width="20" height="20" as="geometry" />
        </mxCell>
        <mxCell id="EXV0WJkCZm_DkFYK4QC3-194" value="" style="rounded=0;whiteSpace=wrap;html=1;direction=north;" parent="1" vertex="1">
          <mxGeometry x="319.25" y="79.25" width="4" height="17" as="geometry" />
        </mxCell>
        <mxCell id="EXV0WJkCZm_DkFYK4QC3-195" value="" style="whiteSpace=wrap;html=1;aspect=fixed;fillColor=#212121;direction=west;" parent="1" vertex="1">
          <mxGeometry x="343.25" y="69.5" width="23" height="23" as="geometry" />
        </mxCell>
        <mxCell id="EXV0WJkCZm_DkFYK4QC3-196" value="" style="rounded=0;whiteSpace=wrap;html=1;" parent="1" vertex="1">
          <mxGeometry x="89.5" y="54" width="110" height="70" as="geometry" />
        </mxCell>
        <mxCell id="EXV0WJkCZm_DkFYK4QC3-197" value="" style="rounded=0;whiteSpace=wrap;html=1;" parent="1" vertex="1">
          <mxGeometry x="179.5" y="64" width="20" height="20" as="geometry" />
        </mxCell>
        <mxCell id="EXV0WJkCZm_DkFYK4QC3-198" value="" style="rounded=0;whiteSpace=wrap;html=1;direction=south;" parent="1" vertex="1">
          <mxGeometry x="93.5" y="80.5" width="4" height="17" as="geometry" />
        </mxCell>
        <mxCell id="EXV0WJkCZm_DkFYK4QC3-199" value="" style="rounded=0;whiteSpace=wrap;html=1;" parent="1" vertex="1">
          <mxGeometry x="179.5" y="94" width="20" height="20" as="geometry" />
        </mxCell>
        <mxCell id="EXV0WJkCZm_DkFYK4QC3-200" value="" style="rounded=0;whiteSpace=wrap;html=1;" parent="1" vertex="1">
          <mxGeometry x="93.5" y="58" width="73" height="13" as="geometry" />
        </mxCell>
        <mxCell id="EXV0WJkCZm_DkFYK4QC3-201" value="" style="ellipse;whiteSpace=wrap;html=1;aspect=fixed;" parent="1" vertex="1">
          <mxGeometry x="96.5" y="60" width="3" height="3" as="geometry" />
        </mxCell>
        <mxCell id="EXV0WJkCZm_DkFYK4QC3-202" value="" style="ellipse;whiteSpace=wrap;html=1;aspect=fixed;" parent="1" vertex="1">
          <mxGeometry x="103.5" y="60" width="3" height="3" as="geometry" />
        </mxCell>
        <mxCell id="EXV0WJkCZm_DkFYK4QC3-203" value="" style="ellipse;whiteSpace=wrap;html=1;aspect=fixed;" parent="1" vertex="1">
          <mxGeometry x="110.5" y="60" width="3" height="3" as="geometry" />
        </mxCell>
        <mxCell id="EXV0WJkCZm_DkFYK4QC3-204" value="" style="ellipse;whiteSpace=wrap;html=1;aspect=fixed;" parent="1" vertex="1">
          <mxGeometry x="117.5" y="60" width="3" height="3" as="geometry" />
        </mxCell>
        <mxCell id="EXV0WJkCZm_DkFYK4QC3-205" value="" style="ellipse;whiteSpace=wrap;html=1;aspect=fixed;" parent="1" vertex="1">
          <mxGeometry x="124.5" y="60" width="3" height="3" as="geometry" />
        </mxCell>
        <mxCell id="EXV0WJkCZm_DkFYK4QC3-206" value="" style="ellipse;whiteSpace=wrap;html=1;aspect=fixed;" parent="1" vertex="1">
          <mxGeometry x="131.5" y="60" width="3" height="3" as="geometry" />
        </mxCell>
        <mxCell id="EXV0WJkCZm_DkFYK4QC3-207" value="" style="ellipse;whiteSpace=wrap;html=1;aspect=fixed;" parent="1" vertex="1">
          <mxGeometry x="138.5" y="60" width="3" height="3" as="geometry" />
        </mxCell>
        <mxCell id="EXV0WJkCZm_DkFYK4QC3-208" value="" style="ellipse;whiteSpace=wrap;html=1;aspect=fixed;" parent="1" vertex="1">
          <mxGeometry x="145.5" y="60" width="3" height="3" as="geometry" />
        </mxCell>
        <mxCell id="EXV0WJkCZm_DkFYK4QC3-209" value="" style="ellipse;whiteSpace=wrap;html=1;aspect=fixed;" parent="1" vertex="1">
          <mxGeometry x="152.5" y="60" width="3" height="3" as="geometry" />
        </mxCell>
        <mxCell id="EXV0WJkCZm_DkFYK4QC3-210" value="" style="ellipse;whiteSpace=wrap;html=1;aspect=fixed;" parent="1" vertex="1">
          <mxGeometry x="159.5" y="60" width="3" height="3" as="geometry" />
        </mxCell>
        <mxCell id="EXV0WJkCZm_DkFYK4QC3-211" value="" style="ellipse;whiteSpace=wrap;html=1;aspect=fixed;" parent="1" vertex="1">
          <mxGeometry x="96.5" y="66" width="3" height="3" as="geometry" />
        </mxCell>
        <mxCell id="EXV0WJkCZm_DkFYK4QC3-212" value="" style="ellipse;whiteSpace=wrap;html=1;aspect=fixed;" parent="1" vertex="1">
          <mxGeometry x="103.5" y="66" width="3" height="3" as="geometry" />
        </mxCell>
        <mxCell id="EXV0WJkCZm_DkFYK4QC3-213" value="" style="ellipse;whiteSpace=wrap;html=1;aspect=fixed;" parent="1" vertex="1">
          <mxGeometry x="110.5" y="66" width="3" height="3" as="geometry" />
        </mxCell>
        <mxCell id="EXV0WJkCZm_DkFYK4QC3-214" value="" style="ellipse;whiteSpace=wrap;html=1;aspect=fixed;" parent="1" vertex="1">
          <mxGeometry x="117.5" y="66" width="3" height="3" as="geometry" />
        </mxCell>
        <mxCell id="EXV0WJkCZm_DkFYK4QC3-215" value="" style="ellipse;whiteSpace=wrap;html=1;aspect=fixed;" parent="1" vertex="1">
          <mxGeometry x="124.5" y="66" width="3" height="3" as="geometry" />
        </mxCell>
        <mxCell id="EXV0WJkCZm_DkFYK4QC3-216" value="" style="ellipse;whiteSpace=wrap;html=1;aspect=fixed;" parent="1" vertex="1">
          <mxGeometry x="131.5" y="66" width="3" height="3" as="geometry" />
        </mxCell>
        <mxCell id="EXV0WJkCZm_DkFYK4QC3-217" value="" style="ellipse;whiteSpace=wrap;html=1;aspect=fixed;" parent="1" vertex="1">
          <mxGeometry x="138.5" y="66" width="3" height="3" as="geometry" />
        </mxCell>
        <mxCell id="EXV0WJkCZm_DkFYK4QC3-218" value="" style="ellipse;whiteSpace=wrap;html=1;aspect=fixed;" parent="1" vertex="1">
          <mxGeometry x="145.5" y="66" width="3" height="3" as="geometry" />
        </mxCell>
        <mxCell id="EXV0WJkCZm_DkFYK4QC3-219" value="" style="ellipse;whiteSpace=wrap;html=1;aspect=fixed;" parent="1" vertex="1">
          <mxGeometry x="152.5" y="66" width="3" height="3" as="geometry" />
        </mxCell>
        <mxCell id="EXV0WJkCZm_DkFYK4QC3-220" value="" style="ellipse;whiteSpace=wrap;html=1;aspect=fixed;" parent="1" vertex="1">
          <mxGeometry x="159.5" y="66" width="3" height="3" as="geometry" />
        </mxCell>
        <mxCell id="EXV0WJkCZm_DkFYK4QC3-221" value="" style="whiteSpace=wrap;html=1;aspect=fixed;fillColor=#212121;" parent="1" vertex="1">
          <mxGeometry x="159.5" y="104" width="10" height="10" as="geometry" />
        </mxCell>
        <mxCell id="EXV0WJkCZm_DkFYK4QC3-222" value="" style="whiteSpace=wrap;html=1;aspect=fixed;fillColor=#212121;" parent="1" vertex="1">
          <mxGeometry x="120.5" y="84" width="23.5" height="23.5" as="geometry" />
        </mxCell>
        <mxCell id="EXV0WJkCZm_DkFYK4QC3-223" value="" style="rounded=0;whiteSpace=wrap;html=1;fillColor=#212121;" parent="1" vertex="1">
          <mxGeometry x="159.5" y="77.5" width="8.5" height="13.5" as="geometry" />
        </mxCell>
        <mxCell id="EXV0WJkCZm_DkFYK4QC3-224" value="" style="rounded=0;whiteSpace=wrap;html=1;direction=north;" parent="1" vertex="1">
          <mxGeometry x="382.25" y="46" width="13" height="27" as="geometry" />
        </mxCell>
        <mxCell id="EXV0WJkCZm_DkFYK4QC3-225" value="" style="ellipse;whiteSpace=wrap;html=1;aspect=fixed;direction=north;" parent="1" vertex="1">
          <mxGeometry x="383.75" y="49" width="3" height="3" as="geometry" />
        </mxCell>
        <mxCell id="EXV0WJkCZm_DkFYK4QC3-226" value="" style="ellipse;whiteSpace=wrap;html=1;aspect=fixed;direction=north;" parent="1" vertex="1">
          <mxGeometry x="390.75" y="49" width="3" height="3" as="geometry" />
        </mxCell>
        <mxCell id="EXV0WJkCZm_DkFYK4QC3-227" value="" style="ellipse;whiteSpace=wrap;html=1;aspect=fixed;direction=north;" parent="1" vertex="1">
          <mxGeometry x="383.75" y="61" width="3" height="3" as="geometry" />
        </mxCell>
        <mxCell id="EXV0WJkCZm_DkFYK4QC3-228" value="" style="ellipse;whiteSpace=wrap;html=1;aspect=fixed;direction=north;" parent="1" vertex="1">
          <mxGeometry x="390.75" y="61" width="3" height="3" as="geometry" />
        </mxCell>
        <mxCell id="EXV0WJkCZm_DkFYK4QC3-229" value="" style="ellipse;whiteSpace=wrap;html=1;aspect=fixed;direction=north;" parent="1" vertex="1">
          <mxGeometry x="383.75" y="55" width="3" height="3" as="geometry" />
        </mxCell>
        <mxCell id="EXV0WJkCZm_DkFYK4QC3-230" value="" style="ellipse;whiteSpace=wrap;html=1;aspect=fixed;direction=north;" parent="1" vertex="1">
          <mxGeometry x="390.75" y="55" width="3" height="3" as="geometry" />
        </mxCell>
        <mxCell id="EXV0WJkCZm_DkFYK4QC3-231" value="" style="ellipse;whiteSpace=wrap;html=1;aspect=fixed;direction=north;" parent="1" vertex="1">
          <mxGeometry x="383.75" y="67" width="3" height="3" as="geometry" />
        </mxCell>
        <mxCell id="EXV0WJkCZm_DkFYK4QC3-232" value="" style="ellipse;whiteSpace=wrap;html=1;aspect=fixed;direction=north;" parent="1" vertex="1">
          <mxGeometry x="390.75" y="67" width="3" height="3" as="geometry" />
        </mxCell>
        <mxCell id="EXV0WJkCZm_DkFYK4QC3-233" value="" style="rounded=0;whiteSpace=wrap;html=1;direction=north;" parent="1" vertex="1">
          <mxGeometry x="382.25" y="89.5" width="13" height="27" as="geometry" />
        </mxCell>
        <mxCell id="EXV0WJkCZm_DkFYK4QC3-234" value="" style="ellipse;whiteSpace=wrap;html=1;aspect=fixed;direction=north;" parent="1" vertex="1">
          <mxGeometry x="383.75" y="92.5" width="3" height="3" as="geometry" />
        </mxCell>
        <mxCell id="EXV0WJkCZm_DkFYK4QC3-235" value="" style="ellipse;whiteSpace=wrap;html=1;aspect=fixed;direction=north;" parent="1" vertex="1">
          <mxGeometry x="390.75" y="92.5" width="3" height="3" as="geometry" />
        </mxCell>
        <mxCell id="EXV0WJkCZm_DkFYK4QC3-236" value="" style="ellipse;whiteSpace=wrap;html=1;aspect=fixed;direction=north;" parent="1" vertex="1">
          <mxGeometry x="383.75" y="104.5" width="3" height="3" as="geometry" />
        </mxCell>
        <mxCell id="EXV0WJkCZm_DkFYK4QC3-237" value="" style="ellipse;whiteSpace=wrap;html=1;aspect=fixed;direction=north;" parent="1" vertex="1">
          <mxGeometry x="390.75" y="104.5" width="3" height="3" as="geometry" />
        </mxCell>
        <mxCell id="EXV0WJkCZm_DkFYK4QC3-238" value="" style="ellipse;whiteSpace=wrap;html=1;aspect=fixed;direction=north;" parent="1" vertex="1">
          <mxGeometry x="383.75" y="98.5" width="3" height="3" as="geometry" />
        </mxCell>
        <mxCell id="EXV0WJkCZm_DkFYK4QC3-239" value="" style="ellipse;whiteSpace=wrap;html=1;aspect=fixed;direction=north;" parent="1" vertex="1">
          <mxGeometry x="390.75" y="98.5" width="3" height="3" as="geometry" />
        </mxCell>
        <mxCell id="EXV0WJkCZm_DkFYK4QC3-240" value="" style="ellipse;whiteSpace=wrap;html=1;aspect=fixed;direction=north;" parent="1" vertex="1">
          <mxGeometry x="383.75" y="110.5" width="3" height="3" as="geometry" />
        </mxCell>
        <mxCell id="EXV0WJkCZm_DkFYK4QC3-241" value="" style="ellipse;whiteSpace=wrap;html=1;aspect=fixed;direction=north;" parent="1" vertex="1">
          <mxGeometry x="390.75" y="110.5" width="3" height="3" as="geometry" />
        </mxCell>
        <mxCell id="EXV0WJkCZm_DkFYK4QC3-242" value="RJ-45" style="text;html=1;strokeColor=none;fillColor=none;align=center;verticalAlign=middle;whiteSpace=wrap;rounded=0;fontSize=6;" parent="1" vertex="1">
          <mxGeometry x="179.5" y="99" width="20" height="10" as="geometry" />
        </mxCell>
        <mxCell id="EXV0WJkCZm_DkFYK4QC3-243" value="USB" style="text;html=1;strokeColor=none;fillColor=none;align=center;verticalAlign=middle;whiteSpace=wrap;rounded=0;fontSize=6;" parent="1" vertex="1">
          <mxGeometry x="179.5" y="69" width="20" height="10" as="geometry" />
        </mxCell>
        <mxCell id="EXV0WJkCZm_DkFYK4QC3-244" value="RJ-45" style="text;html=1;strokeColor=none;fillColor=none;align=center;verticalAlign=middle;whiteSpace=wrap;rounded=0;fontSize=6;" parent="1" vertex="1">
          <mxGeometry x="292.25" y="99" width="20" height="10" as="geometry" />
        </mxCell>
        <mxCell id="EXV0WJkCZm_DkFYK4QC3-245" value="USB" style="text;html=1;strokeColor=none;fillColor=none;align=center;verticalAlign=middle;whiteSpace=wrap;rounded=0;fontSize=6;" parent="1" vertex="1">
          <mxGeometry x="292.25" y="66" width="20" height="10" as="geometry" />
        </mxCell>
        <mxCell id="EXV0WJkCZm_DkFYK4QC3-246" value="PCI" style="text;html=1;strokeColor=none;fillColor=none;align=center;verticalAlign=middle;whiteSpace=wrap;rounded=0;fontSize=6;rotation=-90;" parent="1" vertex="1">
          <mxGeometry x="319.25" y="84.12" width="20" height="7.25" as="geometry" />
        </mxCell>
        <mxCell id="EXV0WJkCZm_DkFYK4QC3-247" value="PCI" style="text;html=1;strokeColor=none;fillColor=none;align=center;verticalAlign=middle;whiteSpace=wrap;rounded=0;fontSize=6;rotation=-90;" parent="1" vertex="1">
          <mxGeometry x="93.5" y="85.37" width="20" height="7.25" as="geometry" />
        </mxCell>
        <mxCell id="EXV0WJkCZm_DkFYK4QC3-248" value="" style="rounded=0;whiteSpace=wrap;html=1;" parent="1" vertex="1">
          <mxGeometry x="302.25" y="42" width="73" height="13" as="geometry" />
        </mxCell>
        <mxCell id="EXV0WJkCZm_DkFYK4QC3-249" value="" style="ellipse;whiteSpace=wrap;html=1;aspect=fixed;" parent="1" vertex="1">
          <mxGeometry x="305.25" y="44" width="3" height="3" as="geometry" />
        </mxCell>
        <mxCell id="EXV0WJkCZm_DkFYK4QC3-250" value="" style="ellipse;whiteSpace=wrap;html=1;aspect=fixed;" parent="1" vertex="1">
          <mxGeometry x="312.25" y="44" width="3" height="3" as="geometry" />
        </mxCell>
        <mxCell id="EXV0WJkCZm_DkFYK4QC3-251" value="" style="ellipse;whiteSpace=wrap;html=1;aspect=fixed;" parent="1" vertex="1">
          <mxGeometry x="319.25" y="44" width="3" height="3" as="geometry" />
        </mxCell>
        <mxCell id="EXV0WJkCZm_DkFYK4QC3-252" value="" style="ellipse;whiteSpace=wrap;html=1;aspect=fixed;" parent="1" vertex="1">
          <mxGeometry x="326.25" y="44" width="3" height="3" as="geometry" />
        </mxCell>
        <mxCell id="EXV0WJkCZm_DkFYK4QC3-253" value="" style="ellipse;whiteSpace=wrap;html=1;aspect=fixed;" parent="1" vertex="1">
          <mxGeometry x="333.25" y="44" width="3" height="3" as="geometry" />
        </mxCell>
        <mxCell id="EXV0WJkCZm_DkFYK4QC3-254" value="" style="ellipse;whiteSpace=wrap;html=1;aspect=fixed;" parent="1" vertex="1">
          <mxGeometry x="340.25" y="44" width="3" height="3" as="geometry" />
        </mxCell>
        <mxCell id="EXV0WJkCZm_DkFYK4QC3-255" value="" style="ellipse;whiteSpace=wrap;html=1;aspect=fixed;" parent="1" vertex="1">
          <mxGeometry x="347.25" y="44" width="3" height="3" as="geometry" />
        </mxCell>
        <mxCell id="EXV0WJkCZm_DkFYK4QC3-256" value="" style="ellipse;whiteSpace=wrap;html=1;aspect=fixed;" parent="1" vertex="1">
          <mxGeometry x="354.25" y="44" width="3" height="3" as="geometry" />
        </mxCell>
        <mxCell id="EXV0WJkCZm_DkFYK4QC3-257" value="" style="ellipse;whiteSpace=wrap;html=1;aspect=fixed;" parent="1" vertex="1">
          <mxGeometry x="361.25" y="44" width="3" height="3" as="geometry" />
        </mxCell>
        <mxCell id="EXV0WJkCZm_DkFYK4QC3-258" value="" style="ellipse;whiteSpace=wrap;html=1;aspect=fixed;" parent="1" vertex="1">
          <mxGeometry x="368.25" y="44" width="3" height="3" as="geometry" />
        </mxCell>
        <mxCell id="EXV0WJkCZm_DkFYK4QC3-259" value="" style="ellipse;whiteSpace=wrap;html=1;aspect=fixed;" parent="1" vertex="1">
          <mxGeometry x="305.25" y="50" width="3" height="3" as="geometry" />
        </mxCell>
        <mxCell id="EXV0WJkCZm_DkFYK4QC3-260" value="" style="ellipse;whiteSpace=wrap;html=1;aspect=fixed;" parent="1" vertex="1">
          <mxGeometry x="312.25" y="50" width="3" height="3" as="geometry" />
        </mxCell>
        <mxCell id="EXV0WJkCZm_DkFYK4QC3-261" value="" style="ellipse;whiteSpace=wrap;html=1;aspect=fixed;" parent="1" vertex="1">
          <mxGeometry x="319.25" y="50" width="3" height="3" as="geometry" />
        </mxCell>
        <mxCell id="EXV0WJkCZm_DkFYK4QC3-262" value="" style="ellipse;whiteSpace=wrap;html=1;aspect=fixed;" parent="1" vertex="1">
          <mxGeometry x="326.25" y="50" width="3" height="3" as="geometry" />
        </mxCell>
        <mxCell id="EXV0WJkCZm_DkFYK4QC3-263" value="" style="ellipse;whiteSpace=wrap;html=1;aspect=fixed;" parent="1" vertex="1">
          <mxGeometry x="333.25" y="50" width="3" height="3" as="geometry" />
        </mxCell>
        <mxCell id="EXV0WJkCZm_DkFYK4QC3-264" value="" style="ellipse;whiteSpace=wrap;html=1;aspect=fixed;" parent="1" vertex="1">
          <mxGeometry x="340.25" y="50" width="3" height="3" as="geometry" />
        </mxCell>
        <mxCell id="EXV0WJkCZm_DkFYK4QC3-265" value="" style="ellipse;whiteSpace=wrap;html=1;aspect=fixed;" parent="1" vertex="1">
          <mxGeometry x="347.25" y="50" width="3" height="3" as="geometry" />
        </mxCell>
        <mxCell id="EXV0WJkCZm_DkFYK4QC3-266" value="" style="ellipse;whiteSpace=wrap;html=1;aspect=fixed;" parent="1" vertex="1">
          <mxGeometry x="354.25" y="50" width="3" height="3" as="geometry" />
        </mxCell>
        <mxCell id="EXV0WJkCZm_DkFYK4QC3-267" value="" style="ellipse;whiteSpace=wrap;html=1;aspect=fixed;" parent="1" vertex="1">
          <mxGeometry x="361.25" y="50" width="3" height="3" as="geometry" />
        </mxCell>
        <mxCell id="EXV0WJkCZm_DkFYK4QC3-268" value="" style="ellipse;whiteSpace=wrap;html=1;aspect=fixed;" parent="1" vertex="1">
          <mxGeometry x="368.25" y="50" width="3" height="3" as="geometry" />
        </mxCell>
        <mxCell id="EXV0WJkCZm_DkFYK4QC3-270" value="Raspberry Pi (Model 5)" style="text;html=1;strokeColor=none;fillColor=none;align=center;verticalAlign=middle;whiteSpace=wrap;rounded=0;fontSize=9;" parent="1" vertex="1">
          <mxGeometry x="93.5" y="384" width="100" height="11.5" as="geometry" />
        </mxCell>
        <mxCell id="EXV0WJkCZm_DkFYK4QC3-271" value="Xilinx Zynq XCZU2CG" style="text;html=1;strokeColor=none;fillColor=none;align=center;verticalAlign=middle;whiteSpace=wrap;rounded=0;fontSize=9;" parent="1" vertex="1">
          <mxGeometry x="297.25" y="370" width="100" height="11.5" as="geometry" />
        </mxCell>
        <mxCell id="EXV0WJkCZm_DkFYK4QC3-272" value="Raspberry Pi (Model 5)" style="text;html=1;strokeColor=none;fillColor=none;align=center;verticalAlign=middle;whiteSpace=wrap;rounded=0;fontSize=9;" parent="1" vertex="1">
          <mxGeometry x="94.5" y="39" width="100" height="11.5" as="geometry" />
        </mxCell>
        <mxCell id="EXV0WJkCZm_DkFYK4QC3-273" value="Xilinx Zynq XCZU2CG" style="text;html=1;strokeColor=none;fillColor=none;align=center;verticalAlign=middle;whiteSpace=wrap;rounded=0;fontSize=9;" parent="1" vertex="1">
          <mxGeometry x="298.75" y="24.5" width="100" height="11.5" as="geometry" />
        </mxCell>
        <mxCell id="EXV0WJkCZm_DkFYK4QC3-279" value="" style="sketch=0;aspect=fixed;pointerEvents=1;shadow=0;dashed=0;html=1;strokeColor=none;labelPosition=center;verticalLabelPosition=bottom;verticalAlign=top;align=center;fillColor=#ff0000;shape=mxgraph.mscae.enterprise.lock" parent="1" vertex="1">
          <mxGeometry x="225" y="250" width="13.26" height="17" as="geometry" />
        </mxCell>
        <mxCell id="EXV0WJkCZm_DkFYK4QC3-283" value="" style="sketch=0;aspect=fixed;pointerEvents=1;shadow=0;dashed=0;html=1;strokeColor=none;labelPosition=center;verticalLabelPosition=bottom;verticalAlign=top;align=center;fillColor=#475D7D;shape=mxgraph.mscae.enterprise.lock_unlocked" parent="1" vertex="1">
          <mxGeometry x="233.46" y="103.5" width="12.58" height="17" as="geometry" />
        </mxCell>
        <mxCell id="EXV0WJkCZm_DkFYK4QC3-277" value="MACsec encryped communication" style="text;html=1;strokeColor=none;fillColor=none;align=center;verticalAlign=middle;whiteSpace=wrap;rounded=0;rotation=-90;fontSize=9;fontColor=#ff0000;" parent="1" vertex="1">
          <mxGeometry x="204" y="243.5" width="89" height="30" as="geometry" />
        </mxCell>
        <mxCell id="EXV0WJkCZm_DkFYK4QC3-285" value="unencryped ETH communication" style="text;html=1;strokeColor=none;fillColor=none;align=center;verticalAlign=middle;whiteSpace=wrap;rounded=0;rotation=0;fontSize=9;fontColor=#475D7D;" parent="1" vertex="1">
          <mxGeometry x="204.65" y="77.5" width="79.58" height="24" as="geometry" />
        </mxCell>
        <mxCell id="BoIr6ADtWr4QS03_KF1U-1" value="" style="sketch=0;aspect=fixed;pointerEvents=1;shadow=0;dashed=0;html=1;strokeColor=none;labelPosition=center;verticalLabelPosition=bottom;verticalAlign=top;align=center;fillColor=#8F6700;shape=mxgraph.mscae.enterprise.lock_unlocked" vertex="1" parent="1">
          <mxGeometry x="234.84" y="433.25" width="12.58" height="17" as="geometry" />
        </mxCell>
        <mxCell id="BoIr6ADtWr4QS03_KF1U-2" value="unencryped ETH communication" style="text;html=1;strokeColor=none;fillColor=none;align=center;verticalAlign=middle;whiteSpace=wrap;rounded=0;rotation=0;fontSize=9;fontColor=#8F6700;" vertex="1" parent="1">
          <mxGeometry x="207.51" y="451" width="73.87" height="24" as="geometry" />
        </mxCell>
        <mxCell id="BoIr6ADtWr4QS03_KF1U-3" value="" style="endArrow=classic;startArrow=classic;html=1;rounded=0;strokeColor=#8F6700;exitX=1;exitY=0.5;exitDx=0;exitDy=0;entryX=0.5;entryY=1;entryDx=0;entryDy=0;" edge="1" parent="1" source="EXV0WJkCZm_DkFYK4QC3-164" target="BoIr6ADtWr4QS03_KF1U-6">
          <mxGeometry width="50" height="50" relative="1" as="geometry">
            <mxPoint x="200" y="450" as="sourcePoint" />
            <mxPoint x="231" y="370" as="targetPoint" />
            <Array as="points">
              <mxPoint x="230" y="450" />
            </Array>
          </mxGeometry>
        </mxCell>
        <mxCell id="BoIr6ADtWr4QS03_KF1U-5" value="" style="rounded=0;whiteSpace=wrap;html=1;fillColor=#000000;" vertex="1" parent="1">
          <mxGeometry x="205" y="365" width="10" height="5" as="geometry" />
        </mxCell>
        <mxCell id="BoIr6ADtWr4QS03_KF1U-9" value="" style="rounded=0;whiteSpace=wrap;html=1;fillColor=#000000;" vertex="1" parent="1">
          <mxGeometry x="205" y="309.5" width="10" height="5" as="geometry" />
        </mxCell>
        <mxCell id="BoIr6ADtWr4QS03_KF1U-10" value="" style="rounded=0;whiteSpace=wrap;html=1;fillColor=#000000;" vertex="1" parent="1">
          <mxGeometry x="225" y="309" width="10" height="5" as="geometry" />
        </mxCell>
        <mxCell id="BoIr6ADtWr4QS03_KF1U-11" value="" style="rounded=0;whiteSpace=wrap;html=1;fillColor=#000000;" vertex="1" parent="1">
          <mxGeometry x="245" y="309" width="10" height="5" as="geometry" />
        </mxCell>
        <mxCell id="BoIr6ADtWr4QS03_KF1U-12" value="" style="rounded=0;whiteSpace=wrap;html=1;fillColor=#000000;" vertex="1" parent="1">
          <mxGeometry x="265" y="309" width="10" height="5" as="geometry" />
        </mxCell>
        <mxCell id="BoIr6ADtWr4QS03_KF1U-22" value="" style="endArrow=classic;startArrow=classic;html=1;rounded=0;strokeColor=#8F6700;entryX=0.5;entryY=1;entryDx=0;entryDy=0;exitX=0;exitY=0.5;exitDx=0;exitDy=0;" edge="1" parent="1" source="EXV0WJkCZm_DkFYK4QC3-166" target="BoIr6ADtWr4QS03_KF1U-7">
          <mxGeometry width="50" height="50" relative="1" as="geometry">
            <mxPoint x="290.09" y="450.24999999999994" as="sourcePoint" />
            <mxPoint x="249.92" y="370.05" as="targetPoint" />
            <Array as="points">
              <mxPoint x="250" y="450" />
            </Array>
          </mxGeometry>
        </mxCell>
        <mxCell id="BoIr6ADtWr4QS03_KF1U-27" value="" style="endArrow=none;dashed=1;html=1;rounded=0;strokeColor=#8F6700;exitX=0.5;exitY=0;exitDx=0;exitDy=0;entryX=0.5;entryY=0;entryDx=0;entryDy=0;jumpStyle=none;jumpSize=6;" edge="1" parent="1" source="BoIr6ADtWr4QS03_KF1U-7" target="BoIr6ADtWr4QS03_KF1U-6">
          <mxGeometry width="50" height="50" relative="1" as="geometry">
            <mxPoint x="251.13" y="364.5" as="sourcePoint" />
            <mxPoint x="231.13" y="364.5" as="targetPoint" />
            <Array as="points">
              <mxPoint x="250" y="350" />
              <mxPoint x="230" y="350" />
            </Array>
          </mxGeometry>
        </mxCell>
        <mxCell id="BoIr6ADtWr4QS03_KF1U-7" value="" style="rounded=0;whiteSpace=wrap;html=1;fillColor=#000000;" vertex="1" parent="1">
          <mxGeometry x="245" y="365" width="10" height="5" as="geometry" />
        </mxCell>
        <mxCell id="BoIr6ADtWr4QS03_KF1U-29" value="" style="endArrow=classic;startArrow=classic;html=1;rounded=0;exitX=0;exitY=0.5;exitDx=0;exitDy=0;entryX=0.5;entryY=1;entryDx=0;entryDy=0;strokeColor=#ff0000;" edge="1" parent="1" source="EXV0WJkCZm_DkFYK4QC3-166" target="BoIr6ADtWr4QS03_KF1U-8">
          <mxGeometry width="50" height="50" relative="1" as="geometry">
            <mxPoint x="292.25" y="451" as="sourcePoint" />
            <mxPoint x="271" y="369.5" as="targetPoint" />
            <Array as="points">
              <mxPoint x="270" y="450" />
            </Array>
          </mxGeometry>
        </mxCell>
        <mxCell id="BoIr6ADtWr4QS03_KF1U-30" value="" style="endArrow=none;dashed=1;html=1;rounded=0;strokeColor=#8F6700;entryX=0.499;entryY=1.052;entryDx=0;entryDy=0;entryPerimeter=0;startArrow=none;startFill=0;jumpSize=6;jumpStyle=gap;exitX=0.5;exitY=0;exitDx=0;exitDy=0;" edge="1" parent="1" source="BoIr6ADtWr4QS03_KF1U-8" target="BoIr6ADtWr4QS03_KF1U-11">
          <mxGeometry width="50" height="50" relative="1" as="geometry">
            <mxPoint x="280" y="350" as="sourcePoint" />
            <mxPoint x="256.13" y="319.5" as="targetPoint" />
            <Array as="points">
              <mxPoint x="270" y="360" />
              <mxPoint x="270" y="330" />
              <mxPoint x="250" y="330" />
            </Array>
          </mxGeometry>
        </mxCell>
        <mxCell id="BoIr6ADtWr4QS03_KF1U-8" value="" style="rounded=0;whiteSpace=wrap;html=1;fillColor=#000000;" vertex="1" parent="1">
          <mxGeometry x="265" y="365" width="10" height="5" as="geometry" />
        </mxCell>
        <mxCell id="BoIr6ADtWr4QS03_KF1U-6" value="" style="rounded=0;whiteSpace=wrap;html=1;fillColor=#000000;" vertex="1" parent="1">
          <mxGeometry x="225" y="365" width="10" height="5" as="geometry" />
        </mxCell>
        <mxCell id="BoIr6ADtWr4QS03_KF1U-31" value="Network Switch" style="rounded=0;whiteSpace=wrap;html=1;strokeColor=none;fontSize=10;" vertex="1" parent="1">
          <mxGeometry x="203.38" y="332.5" width="72.75" height="15" as="geometry" />
        </mxCell>
        <mxCell id="BoIr6ADtWr4QS03_KF1U-32" value="" style="rounded=0;whiteSpace=wrap;html=1;fontSize=10;" vertex="1" parent="1">
          <mxGeometry x="199.5" y="155" width="80.5" height="50" as="geometry" />
        </mxCell>
        <mxCell id="BoIr6ADtWr4QS03_KF1U-33" value="" style="rounded=0;whiteSpace=wrap;html=1;fillColor=#000000;" vertex="1" parent="1">
          <mxGeometry x="205" y="205" width="10" height="5" as="geometry" />
        </mxCell>
        <mxCell id="BoIr6ADtWr4QS03_KF1U-34" value="" style="rounded=0;whiteSpace=wrap;html=1;fillColor=#000000;" vertex="1" parent="1">
          <mxGeometry x="205" y="150" width="10" height="5" as="geometry" />
        </mxCell>
        <mxCell id="BoIr6ADtWr4QS03_KF1U-35" value="" style="rounded=0;whiteSpace=wrap;html=1;fillColor=#000000;" vertex="1" parent="1">
          <mxGeometry x="225" y="150" width="10" height="5" as="geometry" />
        </mxCell>
        <mxCell id="BoIr6ADtWr4QS03_KF1U-36" value="" style="rounded=0;whiteSpace=wrap;html=1;fillColor=#000000;" vertex="1" parent="1">
          <mxGeometry x="245" y="150" width="10" height="5" as="geometry" />
        </mxCell>
        <mxCell id="BoIr6ADtWr4QS03_KF1U-37" value="" style="rounded=0;whiteSpace=wrap;html=1;fillColor=#000000;" vertex="1" parent="1">
          <mxGeometry x="265" y="150" width="10" height="5" as="geometry" />
        </mxCell>
        <mxCell id="BoIr6ADtWr4QS03_KF1U-39" value="" style="rounded=0;whiteSpace=wrap;html=1;fillColor=#000000;" vertex="1" parent="1">
          <mxGeometry x="245" y="205" width="10" height="5" as="geometry" />
        </mxCell>
        <mxCell id="BoIr6ADtWr4QS03_KF1U-40" value="" style="endArrow=none;dashed=1;html=1;rounded=0;strokeColor=#ff0000;startArrow=none;startFill=0;jumpSize=6;jumpStyle=gap;exitX=0.5;exitY=0;exitDx=0;exitDy=0;entryX=0.5;entryY=1;entryDx=0;entryDy=0;" edge="1" parent="1" source="BoIr6ADtWr4QS03_KF1U-39" target="BoIr6ADtWr4QS03_KF1U-37">
          <mxGeometry width="50" height="50" relative="1" as="geometry">
            <mxPoint x="280" y="190" as="sourcePoint" />
            <mxPoint x="300" y="150" as="targetPoint" />
            <Array as="points">
              <mxPoint x="250" y="190" />
              <mxPoint x="270" y="190" />
            </Array>
          </mxGeometry>
        </mxCell>
        <mxCell id="BoIr6ADtWr4QS03_KF1U-41" value="" style="rounded=0;whiteSpace=wrap;html=1;fillColor=#000000;" vertex="1" parent="1">
          <mxGeometry x="265" y="205" width="10" height="5" as="geometry" />
        </mxCell>
        <mxCell id="BoIr6ADtWr4QS03_KF1U-42" value="" style="rounded=0;whiteSpace=wrap;html=1;fillColor=#000000;" vertex="1" parent="1">
          <mxGeometry x="225" y="205" width="10" height="5" as="geometry" />
        </mxCell>
        <mxCell id="BoIr6ADtWr4QS03_KF1U-43" value="Network Switch" style="rounded=0;whiteSpace=wrap;html=1;strokeColor=none;fontSize=10;" vertex="1" parent="1">
          <mxGeometry x="203.38" y="172.5" width="72.75" height="15" as="geometry" />
        </mxCell>
        <mxCell id="BoIr6ADtWr4QS03_KF1U-53" value="" style="endArrow=classic;startArrow=classic;html=1;rounded=0;entryX=1;entryY=0.5;entryDx=0;entryDy=0;exitX=0.5;exitY=0;exitDx=0;exitDy=0;strokeColor=#475D7D;" edge="1" parent="1" source="BoIr6ADtWr4QS03_KF1U-35" target="EXV0WJkCZm_DkFYK4QC3-242">
          <mxGeometry width="50" height="50" relative="1" as="geometry">
            <mxPoint x="260" y="160" as="sourcePoint" />
            <mxPoint x="290" y="114" as="targetPoint" />
            <Array as="points">
              <mxPoint x="230" y="104" />
            </Array>
          </mxGeometry>
        </mxCell>
        <mxCell id="BoIr6ADtWr4QS03_KF1U-54" value="" style="endArrow=classic;startArrow=classic;html=1;rounded=0;entryX=0;entryY=0.5;entryDx=0;entryDy=0;exitX=0.5;exitY=0;exitDx=0;exitDy=0;strokeColor=#475D7D;" edge="1" parent="1" source="BoIr6ADtWr4QS03_KF1U-36" target="EXV0WJkCZm_DkFYK4QC3-244">
          <mxGeometry width="50" height="50" relative="1" as="geometry">
            <mxPoint x="210" y="120" as="sourcePoint" />
            <mxPoint x="260" y="70" as="targetPoint" />
            <Array as="points">
              <mxPoint x="250" y="104" />
            </Array>
          </mxGeometry>
        </mxCell>
        <mxCell id="BoIr6ADtWr4QS03_KF1U-55" value="" style="endArrow=none;dashed=1;html=1;rounded=0;strokeColor=#475D7D;startArrow=none;startFill=0;jumpSize=6;jumpStyle=gap;exitX=0.5;exitY=1;exitDx=0;exitDy=0;entryX=0.5;entryY=1;entryDx=0;entryDy=0;" edge="1" parent="1" source="BoIr6ADtWr4QS03_KF1U-35">
          <mxGeometry width="50" height="50" relative="1" as="geometry">
            <mxPoint x="229.75" y="205" as="sourcePoint" />
            <mxPoint x="249.75" y="155" as="targetPoint" />
            <Array as="points">
              <mxPoint x="230" y="170" />
              <mxPoint x="250" y="170" />
            </Array>
          </mxGeometry>
        </mxCell>
        <mxCell id="BoIr6ADtWr4QS03_KF1U-52" value="" style="endArrow=classic;startArrow=classic;html=1;rounded=0;entryX=0;entryY=0.5;entryDx=0;entryDy=0;exitX=0.5;exitY=0;exitDx=0;exitDy=0;strokeColor=#ff0000;" edge="1" parent="1" source="BoIr6ADtWr4QS03_KF1U-37" target="EXV0WJkCZm_DkFYK4QC3-244">
          <mxGeometry width="50" height="50" relative="1" as="geometry">
            <mxPoint x="220" y="140" as="sourcePoint" />
            <mxPoint x="270" y="90" as="targetPoint" />
            <Array as="points">
              <mxPoint x="270" y="104" />
            </Array>
          </mxGeometry>
        </mxCell>
      </root>
    </mxGraphModel>
  </diagram>
</mxfile>
